<?xml version="1.0" encoding="utf-8"?>
<!-- Generator: Adobe Illustrator 16.0.4, SVG Export Plug-In . SVG Version: 6.00 Build 0)  -->
<!DOCTYPE svg PUBLIC "-//W3C//DTD SVG 1.1//EN" "http://www.w3.org/Graphics/SVG/1.1/DTD/svg11.dtd">
<svg version="1.1" id="Layer_1" xmlns="http://www.w3.org/2000/svg" xmlns:xlink="http://www.w3.org/1999/xlink" x="0px" y="0px"
	 width="236px" height="60px" viewBox="0 0 236 60" enable-background="new 0 0 236 60" xml:space="preserve">
<g>
	<path fill="#5C5D60" d="M77.259,35.6V24.402c0-0.179,0.091-0.268,0.27-0.268h1.422c0.158,0,0.271,0.064,0.335,0.187l2.618,4.221
		c0.02,0.036,0.045,0.051,0.073,0.051s0.045-0.015,0.061-0.051l2.647-4.221c0.065-0.123,0.176-0.187,0.331-0.187h1.412
		c0.175,0,0.268,0.089,0.268,0.268V35.6c0,0.177-0.093,0.267-0.268,0.267h-1.412c-0.175,0-0.266-0.09-0.266-0.267v-7.927
		c0-0.042-0.014-0.075-0.041-0.086c-0.028-0.013-0.053,0.008-0.078,0.053l-1.993,3.266c-0.066,0.127-0.182,0.184-0.336,0.184h-0.654
		c-0.155,0-0.266-0.057-0.333-0.184l-1.998-3.266c-0.019-0.044-0.04-0.065-0.071-0.053c-0.024,0.012-0.042,0.044-0.042,0.086V35.6
		c0,0.177-0.089,0.267-0.264,0.267h-1.411C77.35,35.867,77.259,35.777,77.259,35.6"/>
	<path fill="#5C5D60" d="M112.17,25.811h-5.633c-0.063,0-0.102,0.033-0.102,0.1v3.099c0,0.071,0.038,0.103,0.102,0.103h3.755
		c0.177,0,0.272,0.09,0.272,0.27v1.135c0,0.181-0.095,0.272-0.272,0.272h-3.755c-0.063,0-0.102,0.033-0.102,0.096v3.201
		c0,0.07,0.038,0.105,0.102,0.105h5.633c0.177,0,0.264,0.09,0.264,0.265v1.142c0,0.18-0.087,0.269-0.264,0.269h-7.408
		c-0.179,0-0.27-0.088-0.27-0.269V24.402c0-0.179,0.091-0.268,0.27-0.268h7.408c0.177,0,0.264,0.089,0.264,0.268v1.148
		C112.434,25.723,112.347,25.811,112.17,25.811"/>
	<path fill="#5C5D60" d="M129.791,35.6V24.402c0-0.179,0.086-0.268,0.267-0.268h4.022c0.793,0,1.487,0.14,2.095,0.421
		c0.601,0.278,1.067,0.68,1.401,1.197c0.326,0.522,0.488,1.122,0.488,1.821v4.853c0,0.702-0.162,1.301-0.488,1.821
		c-0.334,0.522-0.8,0.918-1.401,1.202c-0.608,0.278-1.302,0.418-2.095,0.418h-4.022C129.877,35.867,129.791,35.779,129.791,35.6
		 M131.827,34.192h2.335c0.59,0,1.062-0.188,1.417-0.562c0.354-0.373,0.532-0.875,0.542-1.5V27.89c0-0.636-0.178-1.144-0.533-1.517
		c-0.357-0.373-0.84-0.562-1.444-0.562h-2.317c-0.061,0-0.098,0.032-0.098,0.103v8.175
		C131.729,34.157,131.766,34.192,131.827,34.192"/>
	<path fill="#5C5D60" d="M155.617,35.6V24.402c0-0.179,0.086-0.268,0.267-0.268h1.408c0.179,0,0.267,0.089,0.267,0.268V35.6
		c0,0.177-0.087,0.267-0.267,0.267h-1.408C155.703,35.867,155.617,35.777,155.617,35.6"/>
	<path fill="#5C5D60" d="M175.637,35.807c-0.041-0.042-0.058-0.083-0.058-0.145V24.338c0-0.057,0.017-0.104,0.058-0.139
		c0.037-0.042,0.087-0.064,0.143-0.064h0.482c0.058,0,0.108,0.022,0.146,0.064c0.04,0.036,0.059,0.082,0.059,0.139v10.675
		c0,0.042,0.023,0.064,0.065,0.064h5.984c0.055,0,0.103,0.019,0.145,0.06c0.034,0.037,0.055,0.086,0.055,0.14v0.384
		c0,0.062-0.021,0.104-0.055,0.145c-0.042,0.037-0.09,0.06-0.145,0.06h-6.736C175.724,35.867,175.674,35.844,175.637,35.807"/>
	<path fill="#5C5D60" d="M201.785,35.52c-0.585-0.318-1.038-0.763-1.358-1.335c-0.317-0.579-0.477-1.243-0.477-1.989v-4.39
		c0-0.747,0.159-1.409,0.477-1.988c0.32-0.572,0.773-1.022,1.358-1.337c0.591-0.322,1.267-0.479,2.04-0.479
		c0.772,0,1.453,0.157,2.042,0.479c0.592,0.315,1.05,0.765,1.377,1.337c0.322,0.58,0.484,1.241,0.484,1.988v4.39
		c0,0.746-0.162,1.41-0.484,1.989c-0.327,0.572-0.785,1.017-1.377,1.335c-0.589,0.322-1.27,0.477-2.042,0.477
		C203.051,35.997,202.375,35.842,201.785,35.52 M206.01,34.407c0.55-0.546,0.83-1.271,0.83-2.181v-4.434
		c0-0.897-0.28-1.621-0.83-2.175c-0.552-0.549-1.284-0.83-2.186-0.83c-0.895,0-1.618,0.28-2.161,0.83
		c-0.548,0.554-0.822,1.278-0.822,2.175v4.434c0,0.91,0.274,1.635,0.822,2.181c0.543,0.544,1.267,0.821,2.161,0.821
		C204.726,35.228,205.458,34.951,206.01,34.407"/>
	<path fill="#5C5D60" d="M232.854,24.199c0.036,0.036,0.063,0.083,0.063,0.136v0.389c0,0.054-0.027,0.104-0.063,0.138
		c-0.038,0.041-0.085,0.063-0.143,0.063h-3.314c-0.043,0-0.07,0.022-0.07,0.066v10.671c0,0.062-0.016,0.104-0.056,0.145
		c-0.041,0.037-0.09,0.061-0.146,0.061h-0.483c-0.058,0-0.105-0.024-0.143-0.061c-0.043-0.041-0.059-0.083-0.059-0.145V24.991
		c0-0.044-0.021-0.066-0.066-0.066h-3.152c-0.057,0-0.099-0.022-0.143-0.063c-0.04-0.034-0.053-0.084-0.053-0.138v-0.389
		c0-0.054,0.013-0.101,0.053-0.136c0.044-0.042,0.086-0.064,0.143-0.064h7.489C232.769,24.135,232.816,24.157,232.854,24.199"/>
	<g>
		<defs>
			<path id="SVGID_1_" d="M46.295,18.484c-0.614,0.934-1.669,1.396-2.745,1.565c-0.055,0.008-0.114,0.017-0.176,0.024
				c-0.167,0.02-0.338,0.04-0.529,0.055c-0.026,0.003-0.054,0.003-0.08,0.004c-1.1,0.078-2.536,0.025-4.436-0.159
				c-1.437-0.141-3.136-0.354-5.157-0.643c-0.017-0.005-0.029-0.006-0.043-0.007c-0.01-0.002-0.022-0.002-0.031-0.003
				c0.969,1.608,1.666,3.453,2.376,5.188c1.027,2.504,1.599,5.781,0.64,8.356c-1.365,3.665-3.111,6.748-4.855,10.536
				c-0.617,1.337-1.287,2.765-1.569,4.217c-0.238,1.223-0.535,2.588,0.202,3.69c0.957,1.431,3.189,1.995,4.784,1.774
				c0.958-0.129,2.103-0.483,2.923-1.005c2.019-1.29,2.375-1.746,3.997-2.982c0.442-0.369,0.879-0.743,1.307-1.118
				c0.766-0.667,1.549-1.362,2.338-2.077c0.008-0.01,0.019-0.016,0.027-0.027c3.331-3.269,6.836-6.519,8.961-10.749
				c0.575-1.138,1.017-2.397,1.26-3.65c0.051-0.248,0.087-0.498,0.119-0.748c0.012-0.106,0.028-0.213,0.036-0.319
				c0.031-0.347,0.05-0.694,0.042-1.035c-0.005-0.232-0.021-0.471-0.043-0.712c-0.067-0.724-0.216-1.469-0.454-2.128
				c-0.006-0.013-0.008-0.024-0.013-0.036c-1.274-3.314-3.758-6.058-6.166-8.602c-0.231-0.242-0.464-0.481-0.7-0.72
				c-0.345-0.353-0.697-0.696-1.049-1.04c-0.305-0.294-0.606-0.589-0.914-0.876c-0.514-0.476-1.038-0.939-1.57-1.393
				C46.11,15.081,47.422,16.763,46.295,18.484"/>
		</defs>
		<clipPath id="SVGID_2_">
			<use xlink:href="#SVGID_1_"  overflow="visible"/>
		</clipPath>
		
			<linearGradient id="SVGID_3_" gradientUnits="userSpaceOnUse" x1="3799.4185" y1="3261.8291" x2="3800.3708" y2="3261.8291" gradientTransform="matrix(-11.1986 41.504 41.504 11.1986 -92783.2344 -194204.4062)">
			<stop  offset="0" style="stop-color:#EE3E2D"/>
			<stop  offset="0.0127" style="stop-color:#EE3E2D"/>
			<stop  offset="0.3951" style="stop-color:#EF4B36"/>
			<stop  offset="0.9376" style="stop-color:#F16547"/>
			<stop  offset="1" style="stop-color:#F16547"/>
		</linearGradient>
		<polygon clip-path="url(#SVGID_2_)" fill="url(#SVGID_3_)" points="65.614,16.54 53.893,59.977 19.234,50.625 30.954,7.188 		"/>
	</g>
	<g>
		<defs>
			<path id="SVGID_4_" d="M3.289,28.537c-0.114,0.686-0.141,1.432-0.122,2.202c0.082,1.33,0.231,2.675,0.461,4.02
				c0.075,0.412,0.153,0.814,0.233,1.208c0.036,0.168,0.072,0.336,0.109,0.506c0.339,1.582,0.781,3.13,1.307,4.654
				c0.157,0.451,0.318,0.9,0.493,1.345c0.108,0.279,0.219,0.558,0.336,0.838c0.224,0.533,0.462,1.058,0.71,1.577
				c0.106,0.228,0.207,0.457,0.321,0.682c0.375,0.75,0.768,1.486,1.191,2.2c0.075,0.124,0.158,0.248,0.236,0.37
				c2.617,3.954,6.232,7.173,11.109,8.777c6.202,2.046,12.425-1.051,17.923-4.839c-0.82,0.522-1.966,0.876-2.923,1.005
				c-1.595,0.221-3.828-0.343-4.784-1.774c-0.736-1.102-0.44-2.468-0.202-3.69c0.283-1.452,0.952-2.88,1.569-4.217
				c0.716-1.557,1.433-2.992,2.124-4.401C18.766,43.532,13.573,26.29,6.794,25.673c-0.117-0.011-0.231-0.018-0.343-0.018
				C4.753,25.655,3.568,26.854,3.289,28.537"/>
		</defs>
		<clipPath id="SVGID_5_">
			<use xlink:href="#SVGID_4_"  overflow="visible"/>
		</clipPath>
		
			<linearGradient id="SVGID_6_" gradientUnits="userSpaceOnUse" x1="3726.6855" y1="3344.9033" x2="3727.6382" y2="3344.9033" gradientTransform="matrix(27.6782 32.9855 32.9855 -27.6782 -213475.375 -30320.5586)">
			<stop  offset="0" style="stop-color:#B14599"/>
			<stop  offset="0.2818" style="stop-color:#9E4494"/>
			<stop  offset="0.7296" style="stop-color:#84428E"/>
			<stop  offset="1" style="stop-color:#7B418C"/>
		</linearGradient>
		<polygon clip-path="url(#SVGID_5_)" fill="url(#SVGID_6_)" points="23.365,8.694 53.997,45.201 17.381,75.923 -13.25,39.416 		"/>
	</g>
	<g>
		<defs>
			<path id="SVGID_7_" d="M16.681,2.8C8.579,4.631,5.073,13.259,3.802,20.587c-0.389,2.229-0.623,4.521-0.702,6.785
				c-0.027,0.77-0.021,1.551,0.006,2.335c0.006,0.186,0.015,0.355,0.022,0.514c0.005,0.135,0.023,0.272,0.031,0.409
				C3.16,30.619,3.16,30.61,3.163,30.6c-0.004-0.252,0.005-0.494,0.012-0.739c0.004-0.091,0-0.186,0.007-0.277
				c0.021-0.36,0.052-0.712,0.107-1.046c0.034-0.206,0.084-0.398,0.145-0.586c0.021-0.07,0.051-0.136,0.075-0.204
				c0.043-0.11,0.086-0.217,0.14-0.319c0.041-0.085,0.084-0.165,0.132-0.243c0.042-0.072,0.086-0.139,0.132-0.205
				c0.064-0.091,0.128-0.182,0.2-0.266c0.018-0.021,0.04-0.04,0.059-0.062c0.417-0.459,0.96-0.778,1.601-0.913h0.001
				c0.083-0.021,0.168-0.038,0.256-0.05h0.005c0.056-0.008,0.108-0.013,0.164-0.017h0.004c0.156-0.011,0.317-0.014,0.488,0
				c0.015,0,0.028,0,0.043,0c0.019,0,0.039-0.002,0.06,0c0.204,0.019,0.404,0.053,0.604,0.101c0.029,0.007,0.057,0.016,0.087,0.024
				c1.212,0.304,2.349,1.083,3.494,2.133c1.254,1.127,2.536,2.556,3.919,4.034c3.119-6.342,5.193-14.633,15.527-13.044
				c11.737,1.805,14.489,1.661,15.868-0.437c1.07-1.633,0.036-3.153-1.176-4.319c-0.977-0.85-1.972-1.676-3.007-2.445
				C36.259,7.376,29.665,3.834,22.41,2.632c-0.801-0.132-1.618-0.199-2.435-0.199C18.868,2.433,17.76,2.555,16.681,2.8"/>
		</defs>
		<clipPath id="SVGID_8_">
			<use xlink:href="#SVGID_7_"  overflow="visible"/>
		</clipPath>
		
			<linearGradient id="SVGID_9_" gradientUnits="userSpaceOnUse" x1="3815.3193" y1="3484.1982" x2="3816.2715" y2="3484.1982" gradientTransform="matrix(34.4163 -28.8787 -28.8787 -34.4163 -30684.3789 230128.2656)">
			<stop  offset="0" style="stop-color:#FAAC18"/>
			<stop  offset="0.0403" style="stop-color:#FAAC18"/>
			<stop  offset="0.7047" style="stop-color:#FDC209"/>
			<stop  offset="1" style="stop-color:#FFCE01"/>
		</linearGradient>
		<polygon clip-path="url(#SVGID_8_)" fill="url(#SVGID_9_)" points="-11.47,14.635 29.065,-19.378 61.906,19.763 21.372,53.776 		
			"/>
	</g>
</g>
</svg>
